<svg xmlns="http://www.w3.org/2000/svg" xmlns:xlink="http://www.w3.org/1999/xlink" viewBox="0 0 130.51 93.34"><defs><style>.cls-1{fill:#672543;}.cls-2{fill:#769844;}.cls-3{fill:url(#radial-gradient);}</style><radialGradient id="radial-gradient" cx="66.08" cy="34.43" r="29.63" gradientUnits="userSpaceOnUse"><stop offset="0.28" stop-color="#2c6c19"/><stop offset="1" stop-color="#769844"/></radialGradient></defs><title>svg-logo</title><g id="Layer_2" data-name="Layer 2"><g id="Layer_2-2" data-name="Layer 2"><path id="INC." class="cls-1" d="M121.68,87.84a1.92,1.92,0,0,0-1.66,1v-.53c0-.29-.13-.41-.41-.41h-.08a.36.36,0,0,0-.41.41v4.5c0,.29.12.41.41.41h.08c.29,0,.42-.12.42-.41V90.48c0-1.13.57-1.89,1.46-1.89s1.28.35,1.28,1.46v2.79c0,.29.13.41.4.41h.09c.29,0,.41-.12.41-.41V90C123.67,88.4,122.73,87.84,121.68,87.84Zm-4.22-1.91h-.1c-.29,0-.41.13-.41.42v6.49c0,.28.12.41.41.41h.1c.3,0,.43-.13.43-.41V86.35C117.9,86.06,117.77,85.93,117.47,85.93Zm10.71,6a1.46,1.46,0,0,1-1.46.7c-.83,0-1.65-.63-1.65-2s.78-2,1.67-2a1.52,1.52,0,0,1,1.38.64c.27,0,.46-.17.46-.46s-.64-.92-1.78-.92a2.75,2.75,0,0,0,0,5.5c1.14,0,1.86-.52,1.86-1A.45.45,0,0,0,128.18,91.9Zm1.63,0a.7.7,0,1,0,.7.7A.68.68,0,0,0,129.81,91.93Z"/><path id="CHOICE" class="cls-2" d="M93.67,73.1a3.36,3.36,0,0,0-3.12,2.15V69.77c0-.55-.24-.77-.77-.77h-.14a.67.67,0,0,0-.77.77V82.44c0,.55.22.77.77.77h.14c.55,0,.79-.22.79-.77V78.16c0-2,1-3.71,2.72-3.71,1.46,0,2.43.73,2.43,2.82v5.17c0,.55.24.77.75.77h.16c.55,0,.77-.22.77-.77V77.17C97.4,74.13,95.74,73.1,93.67,73.1Zm9.75-.06a5.17,5.17,0,1,0,5,5.19A4.81,4.81,0,0,0,103.42,73Zm0,9c-1.86,0-3.24-1.3-3.24-3.79s1.38-3.77,3.24-3.77,3.24,1.3,3.24,3.77S105.28,82,103.42,82Zm-17-2.45c-.55,1.48-1.78,2.29-4,2.29-2.47,0-4.84-1.74-4.84-5.53s2.37-5.43,4.84-5.43c2.07,0,3.28.71,3.71,2.15.71,0,1.22-.38,1.22-1,0-1.28-1.9-2.74-4.92-2.74-3.57,0-6.71,2.27-6.71,7s3.14,7.07,6.71,7.07c3.06,0,5-1.58,5-2.84A1,1,0,0,0,86.4,79.54Zm24.33-6.32h-.12c-.53,0-.77.24-.77.75v8.47a.67.67,0,0,0,.77.77h.12a.67.67,0,0,0,.77-.77V74C111.5,73.46,111.26,73.22,110.73,73.22Zm9.79,7.46A2.74,2.74,0,0,1,117.78,82c-1.56,0-3.1-1.18-3.1-3.77s1.46-3.79,3.14-3.79a2.86,2.86,0,0,1,2.59,1.2c.51-.06.87-.32.87-.87,0-.75-1.2-1.72-3.34-1.72-2.35,0-5,1.38-5,5.19a4.74,4.74,0,0,0,5,5.15c2.15,0,3.49-1,3.49-1.86A.85.85,0,0,0,120.52,80.68Zm9.16-.06c-.28.71-1.11,1.4-2.84,1.4a3.29,3.29,0,0,1-3.48-3.28,9.21,9.21,0,0,0,3.14.55c2.25,0,4-1,4-3S129,73,126.5,73c-2.27,0-4.72,1.6-4.72,5.19a4.74,4.74,0,0,0,5,5.15c2.29,0,3.69-1.15,3.69-2A.76.76,0,0,0,129.68,80.61Zm-3.22-6.24c1.5,0,2.45.87,2.45,1.88S128,78,126.27,78a10.41,10.41,0,0,1-2.9-.49A3.19,3.19,0,0,1,126.45,74.37Zm-15.78-5.15a1.13,1.13,0,0,0-1.11,1.13,1.11,1.11,0,0,0,1.11,1.11,1.12,1.12,0,0,0,1.11-1.11A1.14,1.14,0,0,0,110.67,69.23Z"/><path id="ADOPTION" class="cls-1" d="M7.69,70.61c-.43-.77-.53-1.13-1.4-1.13H6.07c-.87,0-1,.36-1.4,1.13A58.07,58.07,0,0,0,.07,82.19c-.12.49-.16,1,.57,1h.49c.77,0,.83-.63,1.05-1.42.3-1.11.61-2.19.93-3.2H9.23c.34,1,.65,2.09,1,3.2.22.79.28,1.42,1.05,1.42h.49c.73,0,.69-.53.57-1A58.07,58.07,0,0,0,7.69,70.61ZM3.62,77.13A37.17,37.17,0,0,1,6.17,71.4a56.16,56.16,0,0,1,2.57,5.73ZM21.12,68.6H21c-.55,0-.77.24-.77.73v4.62A4.24,4.24,0,0,0,17.47,73c-2.51,0-4.6,1.68-4.6,5.37,0,3.51,1.92,5,4.15,5a3.6,3.6,0,0,0,3.16-1.82v1c0,.49.24.69.77.69h.16c.53,0,.77-.2.77-.73V69.33C21.89,68.84,21.65,68.6,21.12,68.6Zm-.93,9.85c0,1.76-.69,3.53-2.8,3.53-1.44,0-2.86-.85-2.86-3.61s1.24-3.87,2.92-3.87a3.64,3.64,0,0,1,2.74,1.11ZM28,73a5.17,5.17,0,0,0,0,10.33A5.17,5.17,0,0,0,28,73Zm0,9c-1.86,0-3.24-1.3-3.24-3.79s1.38-3.77,3.24-3.77,3.24,1.3,3.24,3.77S29.89,82,28,82Zm31.75-9a5.17,5.17,0,1,0,5,5.19A4.81,4.81,0,0,0,59.78,73Zm0,9c-1.86,0-3.24-1.3-3.24-3.79s1.38-3.77,3.24-3.77S63,75.73,63,78.2,61.64,82,59.78,82Zm10.88-9A3.61,3.61,0,0,0,67.54,75V74c0-.55-.24-.77-.77-.77h-.14a.67.67,0,0,0-.77.77v8.45c0,.55.22.77.77.77h.14c.55,0,.79-.22.79-.77V78c0-2.13,1.07-3.55,2.74-3.55,1.44,0,2.41.65,2.41,2.74v5.25c0,.55.24.77.75.77h.16c.55,0,.77-.22.77-.77V77.13C74.39,74.09,72.62,73,70.66,73ZM52.52,69.23a1.13,1.13,0,0,0-1.11,1.13,1.11,1.11,0,0,0,1.11,1.11,1.12,1.12,0,0,0,1.11-1.11A1.14,1.14,0,0,0,52.52,69.23ZM50.38,81.61a2.4,2.4,0,0,1-1.44.47c-1.2,0-1.95-.53-1.95-2.31V74.66h2.8c.51,0,.79-.22.79-.69s-.24-.69-.79-.69H47v-2c0-.53-.24-.75-.77-.75h-.14c-.51,0-.77.22-.77.75v2h-1c-.55,0-.85.16-.85.69s.3.69.85.69h1v5.11c0,2.72,1.46,3.61,3.3,3.61,1.24,0,2.27-.47,2.27-1.07A.73.73,0,0,0,50.38,81.61ZM38.89,73a3.7,3.7,0,0,0-3.12,1.68v-.79c0-.47-.24-.71-.77-.71h-.14c-.53,0-.77.22-.77.75V87c0,.51.24.75.77.75H35c.55,0,.77-.24.77-.75V82.68a5.7,5.7,0,0,0,2.61.69c2.43,0,4.72-1.56,4.72-5.23S41.24,73,38.89,73ZM38.38,82a6.18,6.18,0,0,1-2.61-.61V78.83c0-2.29.63-4.38,2.74-4.38,1.58,0,2.92,1,2.92,3.71S40.08,82,38.38,82Zm14.2-8.75h-.12c-.53,0-.77.24-.77.75v8.47a.67.67,0,0,0,.77.77h.12a.67.67,0,0,0,.77-.77V74C53.35,73.46,53.11,73.22,52.58,73.22Z"/><path id="LEAVES" class="cls-3" d="M66.63,47.48c-1,0-1.24.89-1.32,2.64s-.47,9-.47,9-.39-7.23-.47-9-.29-2.64-1.32-2.64-2.89.72-2.89,6.16a20.91,20.91,0,0,0,4.68,12.82,20.91,20.91,0,0,0,4.68-12.82C69.52,48.2,67.78,47.48,66.63,47.48Zm-18-24.9a20.91,20.91,0,0,0-13.44-2.35,20.91,20.91,0,0,0,8.76,10.46c4.71,2.72,6.2,1.57,6.78.57s-.15-1.51-1.62-2.46-7.54-4.9-7.54-4.9,6.45,3.28,8,4.08S52,29,52.51,28.16,53.33,25.29,48.62,22.57Zm32.43,0c-4.71,2.72-4.46,4.58-3.88,5.58s1.38.63,2.94-.18,8-4.08,8-4.08-6.06,4-7.54,4.9S78.45,30.36,79,31.26s2.07,2.15,6.78-.57A20.91,20.91,0,0,0,94.5,20.22,20.91,20.91,0,0,0,81.06,22.57Z"/><path id="TRILLIUM" class="cls-1" d="M73,25.62a4.43,4.43,0,0,0-4.36-2.52,5.33,5.33,0,0,0-3.77,1.61,5.32,5.32,0,0,0-3.77-1.61,4.43,4.43,0,0,0-4.36,2.52c-1.59,3.43,1.34,8.24,5.08,12.95.29-.33,1.56-1.83,1.88-2.22a29.25,29.25,0,0,1-4-6.13h0c-.78-1.75-.31-3.78,1-4.38s3.08.33,3.86,2.08a4.42,4.42,0,0,1,.28.85,4.46,4.46,0,0,1,.28-.85c.78-1.75,2.5-2.68,3.86-2.08s1.82,2.63,1,4.38c-.88,2.16-2.83,4.87-6,8.56C54.35,50.25,45.16,54.38,36,50.09a13.89,13.89,0,0,1,3.77-8.4C43.33,38,49,36.11,56.71,36.11h1A28.55,28.55,0,0,1,56,33.28c-8.14.12-14.29,2.28-18.28,6.45A16.51,16.51,0,0,0,33.14,51l0,.82.73.38a20.94,20.94,0,0,0,9.71,2.5,20.7,20.7,0,0,0,8.7-2c4.61-2.12,9.17-6.5,13.93-12.13C70.69,35.33,74.8,29.54,73,25.62ZM92,39.73c-4-4.16-10.13-6.33-18.26-6.45,0,.06-1.06,1.9-1.68,2.83h1c7.69,0,13.39,1.88,16.93,5.58a13.89,13.89,0,0,1,3.77,8.4C85.26,54,76.82,50.86,68,41.41c-.11.13-1.37,1.61-1.88,2.19,3.82,4.17,7.53,7.4,11.28,9.12a20.7,20.7,0,0,0,8.7,2,20.94,20.94,0,0,0,9.71-2.5l.73-.38,0-.82A16.51,16.51,0,0,0,92,39.73ZM52.89,19.88a19.21,19.21,0,0,0,1.55,7.32A6.59,6.59,0,0,1,55,24.84,6.06,6.06,0,0,1,56.31,23a14.5,14.5,0,0,1-.48-3.46A17,17,0,0,1,59.49,8.91a25.85,25.85,0,0,1,5.35-5.28A25.85,25.85,0,0,1,70.2,8.91a17,17,0,0,1,3.65,10.65A14.51,14.51,0,0,1,73.37,23a6.06,6.06,0,0,1,1.28,1.82A6.63,6.63,0,0,1,75.24,27l0,.16a19.14,19.14,0,0,0,1.53-7.26h0A20.1,20.1,0,0,0,72.5,7,27.84,27.84,0,0,0,65.58.49L64.85,0h0l-.72.47A27.83,27.83,0,0,0,57.19,7a20.11,20.11,0,0,0-4.3,12.88Z"/></g></g></svg>